<svg viewBox="0 0 24 24">
  <g data-name="Layer 2">
    <rect width="21.5" height="21.5" x="1.25" y="1.25" fill="#8dd1ff" rx="4.75" />
    <path fill="#fff"
      d="M11.927 15a1 1 0 0 1-1-1v-.741a2.6 2.6 0 0 1 1.583-2.405 1.478 1.478 0 0 0 .509-.342 1.506 1.506 0 0 0 .408-.529 1.36 1.36 0 0 0-.019-.916 1.566 1.566 0 0 0-.941-.98 1.165 1.165 0 0 0-.33-.045 1.452 1.452 0 0 0-.551.115 2.21 2.21 0 0 0-1.1 1.563 1.006 1.006 0 0 1-.994.83 1.104 1.104 0 0 1-.159-.013 1.004 1.004 0 0 1-.818-1.157 4.223 4.223 0 0 1 2.31-3.072 3.43 3.43 0 0 1 1.313-.266 3.193 3.193 0 0 1 .87.12 3.55 3.55 0 0 1 2.294 2.263 3.292 3.292 0 0 1-.023 2.311 3.437 3.437 0 0 1-.928 1.267 3.446 3.446 0 0 1-1.062.693.605.605 0 0 0-.362.563V14a1 1 0 0 1-1 1Z" />
    <circle cx="12" cy="17" r="1.25" fill="#fff" />
    <path fill="#004fac"
      d="M18 22.75H6A4.755 4.755 0 0 1 1.25 18V6A4.755 4.755 0 0 1 6 1.25h12A4.755 4.755 0 0 1 22.75 6v12A4.755 4.755 0 0 1 18 22.75Zm-12-20A3.254 3.254 0 0 0 2.75 6v12A3.254 3.254 0 0 0 6 21.25h12A3.254 3.254 0 0 0 21.25 18V6A3.254 3.254 0 0 0 18 2.75Z" />
  </g>
</svg>